<?xml version="1.0" encoding="UTF-8" standalone="no"?>
<!DOCTYPE svg PUBLIC "-//W3C//DTD SVG 1.1//EN"
 "http://www.w3.org/Graphics/SVG/1.1/DTD/svg11.dtd">
<!-- Generated by graphviz version 7.0.4 (0)
 -->
<!-- Title: G Pages: 1 -->
<svg width="262pt" height="116pt"
 viewBox="0.00 0.00 261.59 116.00" xmlns="http://www.w3.org/2000/svg" xmlns:xlink="http://www.w3.org/1999/xlink">
<g id="graph0" class="graph" transform="scale(1 1) rotate(0) translate(4 112)">
<title>G</title>
<polygon fill="white" stroke="none" points="-4,4 -4,-112 257.59,-112 257.59,4 -4,4"/>
<!-- hello -->
<g id="node1" class="node">
<title>hello</title>
<ellipse fill="none" stroke="black" cx="37.05" cy="-90" rx="33.29" ry="18"/>
<text text-anchor="middle" x="37.05" y="-86.3" font-family="Times,serif" font-size="14.00">hello</text>
</g>
<!-- world -->
<g id="node2" class="node">
<title>world</title>
<ellipse fill="none" stroke="black" cx="37.05" cy="-18" rx="37.09" ry="18"/>
<text text-anchor="middle" x="37.05" y="-14.3" font-family="Times,serif" font-size="14.00">world</text>
</g>
<!-- hello&#45;&gt;world -->
<g id="edge1" class="edge">
<title>hello&#45;&gt;world</title>
<path fill="none" stroke="black" d="M37.05,-71.7C37.05,-64.41 37.05,-55.73 37.05,-47.54"/>
<polygon fill="black" stroke="black" points="40.55,-47.62 37.05,-37.62 33.55,-47.62 40.55,-47.62"/>
</g>
<!-- hello2 -->
<g id="node3" class="node">
<title>hello2</title>
<ellipse fill="none" stroke="black" cx="135.05" cy="-90" rx="38.99" ry="18"/>
<text text-anchor="middle" x="135.05" y="-86.3" font-family="Times,serif" font-size="14.00">hello2</text>
</g>
<!-- world2 -->
<g id="node5" class="node">
<title>world2</title>
<ellipse fill="none" stroke="black" cx="135.05" cy="-18" rx="42.79" ry="18"/>
<text text-anchor="middle" x="135.05" y="-14.3" font-family="Times,serif" font-size="14.00">world2</text>
</g>
<!-- hello2&#45;&gt;world2 -->
<g id="edge2" class="edge">
<title>hello2&#45;&gt;world2</title>
<path fill="none" stroke="black" d="M135.05,-71.7C135.05,-64.41 135.05,-55.73 135.05,-47.54"/>
<polygon fill="black" stroke="black" points="138.55,-47.62 135.05,-37.62 131.55,-47.62 138.55,-47.62"/>
</g>
<!-- fuck -->
<g id="node4" class="node">
<title>fuck</title>
<ellipse fill="none" stroke="black" cx="223.05" cy="-90" rx="30.59" ry="18"/>
<text text-anchor="middle" x="223.05" y="-86.3" font-family="Times,serif" font-size="14.00">fuck</text>
</g>
</g>
</svg>
